<?xml version="1.0" encoding="UTF-8"?>
<svg id="Layer_2" data-name="Layer 2" xmlns="http://www.w3.org/2000/svg" viewBox="0 0 569.53 518.26">
  <defs>
    <style>
      .cls-1 {
        fill: #ffffff;
      }
    </style>
  </defs>
  <g id="Layer_1-2" data-name="Layer 1">
    <g>
      <path class="cls-1" d="M140.36,296.3c9.91-4.37,22.16-6.47,36.73-6.3l5.63,1.78c5.74-3.2,13.55-4.08,23.42-2.64,11,4.48,18.49,9.28,22.49,14.38l13.24,5.06,3.8,8.88,7.82,5.19,3.53-1.97c.13,3.01,1.19,6.28,3.16,9.82.66,1.18,1.79,2.86,3.4,5.05l.6,23.4,3.3,2.79-1.42,3.69.38,5.87-3.01,3.42,4.03,4.12-.56,5.23-5.61,6.03-.89,12.94-3.99,6.86-3.44-.98-7.65,8.61-3.25,8.18-2.56-1.47-2.45,6-3.02-1.79-9.46,13.67,1.23,2.21-6.05,6.27,1.51,5.82-6.35,4.7-3.14.59-.98,3.44c-4.86,2.71-10.77,6.98-17.76,12.8l-1.97-3.53c-1.94,2.05-5.35,5.11-10.22,9.18-16.48,9.19-35.55,15.49-57.21,18.88-2.57-.11-7.28-.08-14.14.07-5.45,1.3-13.09,2.48-22.93,3.53l-24.17-3.89c-10.72-1.93-17.65-4.14-20.79-6.64l-4.8-8.61-5.53-4.73-1.55.86-3.44-.98c-10.44-9.04-17.88-17.53-22.31-25.48-3.12-5.59-4.4-13.08-3.84-22.46.57-10.74,3.43-20.15,8.57-28.23l5.72,1.44,3.32,5.96,5.97,4.48,1.38,5.6-1.94,2.24-.79,10-3.9,3.91-7.8,2.62,19.63,18.58c4.12,2.53,11.9,6.1,23.35,10.72l5.74-3.2,7.32-.9,3.3,2.79,9.49-5.3,7.19-1.12,5.96-3.32,5.04,3.85.25,5.65,33.23-13.61,1.62.83c5.63-2.37,14.59-6.2,26.87-11.51,1.54-1.05,4.46-3.25,8.76-6.62l2.11,1.72c9.65-3.45,16.17-6.13,19.56-8.01,3.68-2.05,12.25-7.8,25.71-17.23l1.59-2.34,5-7.13c9.31-12.72,14.21-22.98,14.68-30.77l8.12-5.69.35-9.75-5.15,1.14,4.84-10.52-.74-1.32,2.21-1.23-1.72-3.09,1.44-5.72-4.06-7.29-5.74,3.2-.65-4.27c-3.81-5.79-9.82-11.89-18.03-18.31l.39-1.38,2.87-1.6-.47-2.92-11.62-1.63-2.79,3.3c-27.22-9.71-48.93-10.05-65.12-1.02-1.03.57-2.42,1.54-4.17,2.9-1.45,1.2-2.7,2.08-3.73,2.66-1.91,1.07-4.43,2.09-7.56,3.06l-8.58,23.02-3.53,1.97-2.98,6.59c3.11,8.69,4.05,16.08,2.81,22.17l5.72,1.44c2.54,5.92,4.37,9.91,5.52,11.97.82,1.47,2.1,3.07,3.84,4.81l2.56,1.47,2.79-3.3,2.95.09-1.47,2.56,4.99.11,2.21-1.23,2.82-.13,6.24,2.89-.09,2.95,4.47,1.27c5.47-.92,9.82-2.29,13.06-4.1,1.03-.58,2.17-1.3,3.41-2.19l.49.88,6.45-7.65c2.15-1,3.73-1.79,4.76-2.37,6.48-3.61,11.68-8.83,15.59-15.64l2.56-10.98-5.5-1.56,3.04-2.85-2.74-8.03-9.66-5.9-10.22,9.18-5.38,1.26-6.76,13.32-9,6.18-9.75-.35-2.09-3.75-.5-6.09,1.94-2.24.59-2.06,9.61-10.28.68-5.01,4.49-.77,5-4.53,3.17-.03,6.33-5.27c9.3,2.15,18.31,4.46,27.02,6.93l2.87-1.6,2.36,2.16,4.76.24c.78,5.55,2.23,10.91,4.35,16.1l3.39-.15-.09,2.95,2.06.59.65,4.27c-.85,1.25-1.73,2.61-2.65,4.08-1.69,2.49-3.53,5.25-5.51,8.28-5.16,7.7-8.42,13.09-9.8,16.17-5.28,11.63-14.4,21.06-27.36,28.28-11.33,6.32-22.85,8.5-34.56,6.54-3.88-.73-9-2.12-15.35-4.17l-10.06-9.73-.53-9.26c-2.2-3.6-3.75-6.2-4.65-7.83-8.95-16.04-13.35-33.46-13.22-52.26l3.53-1.97,7.73-16.76c7.59-4.04,17.55-10.75,29.88-20.14Z"/>
      <path class="cls-1" d="M384.83,198.27c-1.17,10.77-5.48,22.42-12.91,34.95l-4.36,3.98c-.1,6.57-3.24,13.78-9.42,21.6-9.38,7.28-17.28,11.37-23.7,12.29l-11.01,8.94-9.59-1.15-8.41,4.17-.06,4.04c-2.68-1.39-6.04-2.11-10.08-2.17-1.35-.02-3.38.12-6.07.42l-20.57-11.18-4.07,1.46-2.48-3.07-5.27-2.61-1.45-4.32-5.58,1.43-4.25-3.1-2.41-7.87-10.76-7.24-3.94-6.89,2.57-2.49-3.63-10.93-5.46-6.91,2.55-1.48-3.97-5.12,3.06-1.72-7.11-15.02-2.53-.04-2.40-8.38-5.79-1.60-.89-7.85,1.06-3.02-2.49-2.57c.08-5.56-.66-12.82-2.21-21.78l4.04.06c-.81-2.71-1.75-7.19-2.83-13.44.28-18.87,4.36-38.53,12.25-58.98,1.38-2.17,3.72-6.27,7.01-12.29,1.6-5.37,4.4-12.58,8.41-21.62l15.45-18.99c7.03-8.32,12.42-13.22,16.15-14.68l9.86.15,6.86-2.43.03-1.77,2.57-2.49C294.01,2.07,305.09-.13,314.19,0c6.4.10,13.53,2.73,21.37,7.9,9.02,5.87,15.74,13.05,20.16,21.54l-4.11,4.24-6.83-.10-6.87,2.93-5.54-1.60-.97-2.80-8.26-5.69-1.44-5.33,1.64-8.07-25.9,7.71c-4.25,2.30-11.23,7.25-20.95,14.86l-.10,6.57-2.88,6.78-4.07,1.46-.16,10.87-2.63,6.79-.10,6.83-5.85,2.44-5.02-2.60-4.83,35.58-1.53.99c-.77,6.06-1.92,15.74-3.46,29.03.14,1.86.59,5.49,1.36,10.89l-2.54.97c-1.84,10.09-2.78,17.07-2.84,20.94-.06,4.21.63,14.51,2.07,30.88l1.23,2.55,3.68,7.89c6.36,14.42,12.79,23.79,19.31,28.10l.86,9.87,8.27,5.18,1.59-5.03,6.69,9.45,1.52.02-.04,2.53,3.54.05,4.24,4.11,8.34.12.10-6.57,4.02,1.58c6.92-.40,15.21-2.56,24.87-6.46l1,1.03-.05,3.29,2.77,1.05,7.22-9.25-1.46-4.07c22.02-18.72,33.17-37.35,33.45-55.89.02-1.18-.13-2.87-.43-5.06-.31-1.86-.46-3.38-.44-4.56.03-2.19.41-4.88,1.13-8.07l-15.65-18.94.06-4.04-4.21-5.88c-9.08-1.65-15.95-4.54-20.61-8.65l-4.11,4.24c-6.40-.77-10.77-1.17-13.13-1.21-1.69-.03-3.71.29-6.08.92l-2.55,1.48,1.46,4.07-1.55,2.51-1.48-2.55-2.59,4.26-.04,2.53-1.30,2.51-5.62,3.96-2.51-1.55-3.34,3.24c-1.93,5.20-2.92,9.65-2.98,13.36-.02,1.18.05,2.53.19,4.05l-1.01-.02,3.40,9.41c-.21,2.36-.31,4.13-.33,5.30-.11,7.42,1.81,14.53,5.75,21.32l8.23,7.71,4.10-3.98.95,4.06,8.32,1.64,9.94-5.42-2.83-13.44,1.60-5.29-8.16-12.51-.85-10.89,5.18-8.27,4.30.06,5.52,2.61.97,2.80,1.49,1.54,4.10,13.46,4,3.09-1.58,4.27,1.42,6.60-1.56,2.76,1.40,8.11c-6.51,6.98-13.01,13.63-19.51,19.94l-.05,3.29-3.05.97-2.59,4.01c-5.20-2.10-10.57-3.53-16.12-4.28l-1.56,3.01-2.51-1.55-1.54,1.49-4.02-1.58c-.66-1.36-1.39-2.80-2.21-4.33-1.31-2.71-2.78-5.69-4.42-8.92-4.09-8.32-7.13-13.84-9.11-16.57-7.43-10.39-11.04-23-10.82-37.83.19-12.97,4.06-24.04,11.62-33.20,2.57-3,6.33-6.73,11.29-11.21l13.46-3.85,8.28,4.17c4.21-.10,7.25-.15,9.10-.12,18.37.27,35.66,5.17,51.87,14.68l-.06,4.04,10.65,15.08c-.30,8.59.54,20.58,2.50,35.94Z"/>
      <path class="cls-1" d="M347.48,459c-8.74-6.40-16.68-15.95-23.82-28.66l-1.27-5.76c-5.64-3.37-10.31-9.69-14-18.96-1.62-11.76-1.21-20.65,1.20-26.67l-2.24-14,5.79-7.73.59-9.37-3.47-2.07c2.54-1.62,4.85-4.17,6.92-7.64.69-1.16,1.58-2.98,2.68-5.47l19.96-12.22.77-4.25,3.90-.61,4.89-3.26,4.47.90,1.55-5.55,4.81-2.13,8.02,1.85,11.65-5.70,7.93.03.87,3.47,11.28,2.32,8.71-1.27v2.95s6.42-.88,6.42-.88l-.04,3.51,16.57,1.35,1.30-2.17,8.46,2.11,4.28-4.21,7.25,3.15,2.09,2.42,3.47-.87c4.78,2.85,11.43,5.84,19.96,8.98l-2.07,3.47c2.75.65,7.10,2.08,13.06,4.27,16.20,9.68,31.19,23.05,44.96,40.10,1.19,2.28,3.57,6.35,7.13,12.21,3.85,4.07,8.69,10.10,14.52,18.09l8.72,22.88c3.69,10.25,5.24,17.36,4.64,21.32l-5.06,8.46-1.33,7.16,1.52.91.87,3.47c-2.61,13.56-6.24,24.25-10.91,32.06-3.28,5.50-9.13,10.35-17.53,14.56-9.59,4.87-19.17,7.10-28.73,6.69l-1.62-5.68,3.50-5.86.90-7.42,4.15-4,2.91.56,9.05-4.31,5.34,1.42,6.17,5.45,6.28-26.29c.13-4.83-.67-13.35-2.39-25.58l-5.64-3.37-4.43-5.89.77-4.25-9.33-5.57-4.56-5.67-5.86-3.50.81-6.29,4.76-3.04-28.40-21.97-.09-1.82c-4.86-3.69-12.67-9.53-23.40-17.51-1.68-.81-5.05-2.23-10.11-4.27l.43-2.69c-7.82-6.63-13.39-10.94-16.72-12.93-3.62-2.16-12.88-6.71-27.78-13.65l-2.82-.21-8.67-.76c-15.67-1.70-27-.82-33.99,2.67l-8.98-4.19-8.62,4.57,3.56,3.90-11.53,1.06-.78,1.30-2.17-1.30-1.82,3.04-5.68,1.62-4.28,7.16,5.64,3.37-3.38,2.69c-3.11,6.19-5.39,14.45-6.84,24.77l-1.39.35-2.82-1.69-2.29,1.87,4.40,10.87,4.25.77c5.20,28.43,15.76,47.40,31.68,56.91,1.01.60,2.55,1.32,4.60,2.16,1.76.66,3.15,1.29,4.17,1.90,1.88,1.12,4.02,2.79,6.43,5.02l24.23-4.08,3.47,2.07,7.20-.71c5.97-7.04,11.90-11.55,17.79-13.52l-1.62-5.68c3.86-5.16,6.40-8.74,7.61-10.77.87-1.45,1.61-3.36,2.24-5.73v-2.95s-4.26-.77-4.26-.77l-1.39-2.60h2.95s-2.39-4.38-2.39-4.38l-2.17-1.30-1.52-2.38-.62-6.85,2.60-1.39-1.14-4.51c-3.53-4.27-6.90-7.36-10.08-9.26-1.01-.61-2.21-1.23-3.60-1.86l.52-.87-9.85-1.76c-1.94-1.36-3.42-2.34-4.43-2.94-6.37-3.80-13.48-5.70-21.34-5.68l-10.79,3.27,1.40,5.55-3.99-1.21-5.58,6.38-.28,11.32,13.06,4.27,3.78,4.02,14.91-.81,9.85,4.71,4.57,8.62-2.20,3.69-5.02,3.48-2.91-.56-2.08.52-13.71-3.18-4.68,1.92-2.91-3.51-6.42-2.07-1.61-2.73-7.72-2.85c-2.79-9.13-5.30-18.09-7.51-26.87l-2.82-1.69.69-3.12-2.18-4.24c4.42-3.45,8.34-7.39,11.77-11.82l-1.83-2.86,2.60-1.39-.52-2.08,3.38-2.69c1.50.11,3.12.19,4.86.25,3.01.22,6.32.43,9.93.63,9.25.61,15.55.75,18.90.40,12.71-1.24,25.44,1.94,38.17,9.55,11.14,6.65,18.79,15.54,22.95,26.66,1.31,3.73,2.66,8.85,4.06,15.38l-3.40,13.58-7.75,5.09c-2.02,3.70-3.50,6.35-4.45,7.94-9.42,15.77-22.30,28.30-38.64,37.58l-3.47-2.07-18.38,1.68c-7.29-4.55-18.09-9.82-32.38-15.80Z"/>
    </g>
  </g>
</svg>
