<?xml version="1.0" encoding="iso-8859-1"?>
<!-- Generator: Adobe Illustrator 16.0.0, SVG Export Plug-In . SVG Version: 6.00 Build 0)  -->
<!DOCTYPE svg PUBLIC "-//W3C//DTD SVG 1.1//EN" "http://www.w3.org/Graphics/SVG/1.1/DTD/svg11.dtd">
<svg version="1.1" id="Capa_1" xmlns="http://www.w3.org/2000/svg" xmlns:xlink="http://www.w3.org/1999/xlink" x="0px" y="0px"
	 width="612px" height="612px" viewBox="0 0 612 612" style="enable-background:new 0 0 612 612;" xml:space="preserve">
<g>
	<g>
		<g id="Next">
			<g>
				<path d="M578,68c-18.785,0-34,15.215-34,34v146.812L238,68c-18.785,0-34,15.215-34,34v66.453L34,68C15.215,68,0,83.215,0,102
					v408c0,18.785,15.215,34,34,34l170-100.453V510c0,18.785,15.215,34,34,34l306-180.812V510c0,18.785,15.215,34,34,34
					s34-15.215,34-34V102C612,83.215,596.785,68,578,68z M204,364.565L68,444.924V167.076l136,80.359V364.565z M272,444.924V167.076
					L507.11,306L272,444.924z" fill="currentColor"/>
			</g>
		</g>
	</g>
</g>
<g>
</g>
<g>
</g>
<g>
</g>
<g>
</g>
<g>
</g>
<g>
</g>
<g>
</g>
<g>
</g>
<g>
</g>
<g>
</g>
<g>
</g>
<g>
</g>
<g>
</g>
<g>
</g>
<g>
</g>
</svg>
