<?xml version="1.0" ?><svg xmlns="http://www.w3.org/2000/svg" viewBox="0 0 32 32"><g id="_169_tool-01" data-name="169 tool-01"><path d="M8.22,26.28A3,3,0,0,1,6.06,21.2l7.79-8.13a1.05,1.05,0,0,0,.24-.94,6,6,0,0,1,8-6.76,1,1,0,0,1,.63.71,1,1,0,0,1-.25.92L20,9.59,21.4,11l2.48-2.59a1,1,0,0,1,.91-.29,1,1,0,0,1,.74.61,6,6,0,0,1-6.42,8.24,1,1,0,0,0-.93.28l-7.79,8.13a3,3,0,0,1-2.1.92ZM19.65,7A4,4,0,0,0,17.1,8.24a4,4,0,0,0-1,3.52,3,3,0,0,1-.77,2.69L7.5,22.58a1,1,0,0,0,0,1.42,1,1,0,0,0,.71.28,1,1,0,0,0,.7-.31l7.8-8.13A3,3,0,0,1,19.39,15a4,4,0,0,0,3.48-1.19A4,4,0,0,0,24,11.17l-1.14,1.19a2,2,0,0,1-1.4.61A2,2,0,0,1,20,12.42L18.57,11a2,2,0,0,1-.06-2.82Z" fill="currentColor"/></g></svg>