<?xml version="1.0" ?><svg xmlns="http://www.w3.org/2000/svg" id="_레이어_1_사본" data-name="레이어 1 사본" viewBox="0 0 100 100"><defs><style>
      .cls-1 {
        stroke-width: 0px;
      }
    </style></defs><path class="cls-1" d="m52.890625,86.5273438h-5.9799805c-1.2836914,0-2.4057617-.8671875-2.7294922-2.109375l-2.4394531-9.359375c-.0253906-.0966797-.0957031-.1777344-.1879883-.2167969l-3.1645508-1.3095703c-.0913086-.0380859-.1938477-.0332031-.2788086.015625l-8.5185547,4.7890625c-1.0986328.6152344-2.4868164.4257812-3.3769531-.4648438l-4.2280273-4.2285156c-.9077148-.90625-1.0878906-2.3134766-.4384766-3.4208984l4.8930664-8.34375c.050293-.0859375.0576172-.1914062.0200195-.2832031l-1.3110352-3.1660156c-.0380859-.0917969-.1142578-.1591797-.2094727-.1855469l-9.4086914-2.6386719c-1.2124023-.3378906-2.0595703-1.4550781-2.0595703-2.7148438v-5.9799805c0-1.2836914.8676758-2.40625,2.1098633-2.7294922l9.3588867-2.4394531c.0981445-.0258789.1767578-.0942383.2158203-.1879883l1.3105469-3.1645508c.0380859-.0917969.0317383-.1933594-.0166016-.2797852l-4.7880859-8.5175781c-.6166992-1.0991211-.425293-2.4873047.465332-3.3769531l4.2275391-4.2280273c.9086914-.9082031,2.315918-1.0878906,3.4213867-.4384766l8.3432617,4.8930664c.0859375.0493164.1928711.0566406.2851562.0195312l3.1645508-1.3105469c.0913086-.0380859.1591797-.1142578.1860352-.2094727l2.6376953-9.4086914c.3393555-1.2124023,1.456543-2.0595703,2.7158203-2.0595703h5.9799805c1.2822266,0,2.4042969.8671875,2.7285156,2.1088867l2.4404297,9.3598633v.0004883c.0244141.0966797.0957031.1772461.1884766.2158203l3.1640625,1.3100586c.0908203.0375977.1953125.0297852.2792969-.0166016l8.5175781-4.7880859c1.0986328-.6171875,2.4882812-.4243164,3.3769531.4648438l4.2275391,4.2280273c.9082031.9082031,1.0888672,2.3154297.4384766,3.4223633l-4.8925781,8.3422852c-.0507812.0864258-.0585938.1928711-.0205078.2851562l1.3115234,3.1645508c.0380859.0908203.1152344.159668.2089844.1860352l9.4101562,2.6376953c1.2119141.3398438,2.0585938,1.456543,2.0585938,2.7158203v5.9799805c0,1.2822266-.8671875,2.4042969-2.1083984,2.7285156l-9.3603516,2.4404297c-.0976562.0253906-.1777344.0957031-.2167969.1884766l-1.3095703,3.1640625c-.0380859.0898438-.03125.1943359.015625.2783203l4.7890625,8.5185547c.6162109,1.0986328.4248047,2.4873047-.4648438,3.3769531l-4.2285156,4.2275391c-.9082031.9091797-2.3173828,1.0869141-3.421875.4384766l-8.3427734-4.8925781c-.0849609-.0498047-.1923828-.0576172-.2832031-.0205078l-3.1660156,1.3115234c-.0908203.0380859-.1601562.1152344-.1855469.2089844l-2.6386719,9.4101562c-.3378906,1.2119141-1.4550781,2.0585938-2.7148438,2.0585938Zm-14.6264648-15.5214844c.3657227,0,.7324219.0712891,1.0820312.2167969l3.1645508,1.3095703c.8110352.3369141,1.4277344,1.0449219,1.6499023,1.8945312l2.4394531,9.3603516c.0371094.1416016.1645508.2402344.3105469.2402344h5.9799805c.1425781,0,.2695312-.0957031.3076172-.2333984l2.6386719-9.4101562c.234375-.8398438.8320312-1.5117188,1.6376953-1.84375l3.1630859-1.3105469c.8105469-.3378906,1.7480469-.2724609,2.5058594.1728516l8.34375,4.8925781c.1259766.0732422.2841797.0537109.3876953-.0488281l4.2294922-4.2285156c.1015625-.1015625.1230469-.2597656.0527344-.3857422l-4.7880859-8.5166016c-.4277344-.7597656-.4804688-1.6572266-.1464844-2.4619141l1.3095703-3.1640625c.3378906-.8125,1.0458984-1.4287109,1.8964844-1.6503906l9.3583984-2.4394531c.1416016-.0361328.2402344-.1640625.2402344-.3095703v-5.9799805c0-.1430664-.0957031-.2700195-.2333984-.3085938l-9.4101562-2.6376953c-.8398438-.2353516-1.5117188-.8325195-1.84375-1.6381836l-1.3105469-3.1625977c-.3369141-.8110352-.2724609-1.7480469.1728516-2.5068359l4.8925781-8.3432617c.0742188-.1259766.0537109-.2856445-.0498047-.3891602l-4.2275391-4.2280273c-.1015625-.1015625-.2587891-.1225586-.3857422-.0527344l-8.5166016,4.7880859c-.7597656.425293-1.65625.4814453-2.4619141.1459961l-3.1640625-1.3100586c-.8125-.3374023-1.4287109-1.0454102-1.6503906-1.8950195l-2.4394531-9.3588867c-.0361328-.1411133-.1640625-.2402344-.3095703-.2402344h-5.9799805c-.1430664,0-.2700195.0961914-.3085938.2338867l-2.6376953,9.4086914c-.234375.8383789-.8310547,1.5107422-1.6362305,1.8447266l-3.1645508,1.3105469c-.8105469.3359375-1.7480469.2724609-2.5068359-.1723633l-8.3432617-4.8935547c-.1254883-.0732422-.2856445-.0537109-.3896484.050293l-4.2275391,4.2280273c-.1015625.1015625-.1230469.2592773-.0527344.3847656l4.7880859,8.5170898c.4267578.7597656.4799805,1.6567383.1464844,2.4614258l-1.3105469,3.1645508c-.3364258.8110352-1.0444336,1.4277344-1.894043,1.6499023l-9.3598633,2.4394531c-.1416016.0371094-.2402344.1645508-.2402344.3105469v5.9799805c0,.1425781.0957031.2695312.2333984.3076172l9.4091797,2.6386719c.8383789.234375,1.5107422.8300781,1.8447266,1.6357422l1.3105469,3.1650391c.3364258.8105469.2719727,1.7480469-.1723633,2.5058594l-4.8935547,8.34375c-.0737305.125-.0532227.2851562.0493164.3876953l4.2290039,4.2294922c.1010742.1015625.2587891.1230469.3847656.0527344l8.5170898-4.7880859c.4291992-.2412109.9033203-.3632812,1.3793945-.3632812Z"/><path class="cls-1" d="m50,61.421875c-6.2978516,0-11.4213867-5.1240234-11.4213867-11.421875s5.1235352-11.4213867,11.4213867-11.4213867,11.421875,5.1235352,11.421875,11.4213867-5.1240234,11.421875-11.421875,11.421875Zm0-20.3432617c-4.9194336,0-8.9213867,4.0019531-8.9213867,8.9213867,0,4.9199219,4.0019531,8.921875,8.9213867,8.921875,4.9199219,0,8.921875-4.0019531,8.921875-8.921875,0-4.9194336-4.0019531-8.9213867-8.921875-8.9213867Z"/><path class="cls-1" d="m50,67.1533203c-9.4584961,0-17.1538086-7.6953125-17.1538086-17.1533203,0-9.4584961,7.6953125-17.1538086,17.1538086-17.1538086,9.4580078,0,17.1533203,7.6953125,17.1533203,17.1538086,0,9.4580078-7.6953125,17.1533203-17.1533203,17.1533203Zm0-31.8071289c-8.0800781,0-14.6538086,6.5737305-14.6538086,14.6538086s6.5737305,14.6533203,14.6538086,14.6533203,14.6533203-6.5732422,14.6533203-14.6533203-6.5732422-14.6538086-14.6533203-14.6538086Z"/></svg>